<?xml version="1.0" encoding="utf-8" standalone="no"?>
<!DOCTYPE svg PUBLIC "-//W3C//DTD SVG 1.1//EN"
  "http://www.w3.org/Graphics/SVG/1.1/DTD/svg11.dtd">
<!-- Created with matplotlib (https://matplotlib.org/) -->
<svg height="288pt" version="1.1" viewBox="0 0 432 288" width="432pt" xmlns="http://www.w3.org/2000/svg" xmlns:xlink="http://www.w3.org/1999/xlink">
 <defs>
  <style type="text/css">
*{stroke-linecap:butt;stroke-linejoin:round;}
  </style>
 </defs>
 <g id="figure_1">
  <g id="patch_1">
   <path d="M 0 288 
L 432 288 
L 432 0 
L 0 0 
z
" style="fill:#ffffff;"/>
  </g>
  <g id="axes_1">
   <g id="patch_2">
    <path d="M 54 252 
L 388.8 252 
L 388.8 34.56 
L 54 34.56 
z
" style="fill:#ffffff;"/>
   </g>
   <g id="matplotlib.axis_1">
    <g id="xtick_1">
     <g id="line2d_1">
      <defs>
       <path d="M 0 0 
L 0 3.5 
" id="mfbd83137ab" style="stroke:#000000;stroke-width:0.8;"/>
      </defs>
      <g>
       <use style="stroke:#000000;stroke-width:0.8;" x="69.218182" xlink:href="#mfbd83137ab" y="252"/>
      </g>
     </g>
     <g id="text_1">
      <!-- 0.0 -->
      <defs>
       <path d="M 31.78125 66.40625 
Q 24.171875 66.40625 20.328125 58.90625 
Q 16.5 51.421875 16.5 36.375 
Q 16.5 21.390625 20.328125 13.890625 
Q 24.171875 6.390625 31.78125 6.390625 
Q 39.453125 6.390625 43.28125 13.890625 
Q 47.125 21.390625 47.125 36.375 
Q 47.125 51.421875 43.28125 58.90625 
Q 39.453125 66.40625 31.78125 66.40625 
z
M 31.78125 74.21875 
Q 44.046875 74.21875 50.515625 64.515625 
Q 56.984375 54.828125 56.984375 36.375 
Q 56.984375 17.96875 50.515625 8.265625 
Q 44.046875 -1.421875 31.78125 -1.421875 
Q 19.53125 -1.421875 13.0625 8.265625 
Q 6.59375 17.96875 6.59375 36.375 
Q 6.59375 54.828125 13.0625 64.515625 
Q 19.53125 74.21875 31.78125 74.21875 
z
" id="DejaVuSans-48"/>
       <path d="M 10.6875 12.40625 
L 21 12.40625 
L 21 0 
L 10.6875 0 
z
" id="DejaVuSans-46"/>
      </defs>
      <g transform="translate(61.266619 266.598437)scale(0.1 -0.1)">
       <use xlink:href="#DejaVuSans-48"/>
       <use x="63.623047" xlink:href="#DejaVuSans-46"/>
       <use x="95.410156" xlink:href="#DejaVuSans-48"/>
      </g>
     </g>
    </g>
    <g id="xtick_2">
     <g id="line2d_2">
      <g>
       <use style="stroke:#000000;stroke-width:0.8;" x="130.090909" xlink:href="#mfbd83137ab" y="252"/>
      </g>
     </g>
     <g id="text_2">
      <!-- 0.2 -->
      <defs>
       <path d="M 19.1875 8.296875 
L 53.609375 8.296875 
L 53.609375 0 
L 7.328125 0 
L 7.328125 8.296875 
Q 12.9375 14.109375 22.625 23.890625 
Q 32.328125 33.6875 34.8125 36.53125 
Q 39.546875 41.84375 41.421875 45.53125 
Q 43.3125 49.21875 43.3125 52.78125 
Q 43.3125 58.59375 39.234375 62.25 
Q 35.15625 65.921875 28.609375 65.921875 
Q 23.96875 65.921875 18.8125 64.3125 
Q 13.671875 62.703125 7.8125 59.421875 
L 7.8125 69.390625 
Q 13.765625 71.78125 18.9375 73 
Q 24.125 74.21875 28.421875 74.21875 
Q 39.75 74.21875 46.484375 68.546875 
Q 53.21875 62.890625 53.21875 53.421875 
Q 53.21875 48.921875 51.53125 44.890625 
Q 49.859375 40.875 45.40625 35.40625 
Q 44.1875 33.984375 37.640625 27.21875 
Q 31.109375 20.453125 19.1875 8.296875 
z
" id="DejaVuSans-50"/>
      </defs>
      <g transform="translate(122.139347 266.598437)scale(0.1 -0.1)">
       <use xlink:href="#DejaVuSans-48"/>
       <use x="63.623047" xlink:href="#DejaVuSans-46"/>
       <use x="95.410156" xlink:href="#DejaVuSans-50"/>
      </g>
     </g>
    </g>
    <g id="xtick_3">
     <g id="line2d_3">
      <g>
       <use style="stroke:#000000;stroke-width:0.8;" x="190.963636" xlink:href="#mfbd83137ab" y="252"/>
      </g>
     </g>
     <g id="text_3">
      <!-- 0.4 -->
      <defs>
       <path d="M 37.796875 64.3125 
L 12.890625 25.390625 
L 37.796875 25.390625 
z
M 35.203125 72.90625 
L 47.609375 72.90625 
L 47.609375 25.390625 
L 58.015625 25.390625 
L 58.015625 17.1875 
L 47.609375 17.1875 
L 47.609375 0 
L 37.796875 0 
L 37.796875 17.1875 
L 4.890625 17.1875 
L 4.890625 26.703125 
z
" id="DejaVuSans-52"/>
      </defs>
      <g transform="translate(183.012074 266.598437)scale(0.1 -0.1)">
       <use xlink:href="#DejaVuSans-48"/>
       <use x="63.623047" xlink:href="#DejaVuSans-46"/>
       <use x="95.410156" xlink:href="#DejaVuSans-52"/>
      </g>
     </g>
    </g>
    <g id="xtick_4">
     <g id="line2d_4">
      <g>
       <use style="stroke:#000000;stroke-width:0.8;" x="251.836364" xlink:href="#mfbd83137ab" y="252"/>
      </g>
     </g>
     <g id="text_4">
      <!-- 0.6 -->
      <defs>
       <path d="M 33.015625 40.375 
Q 26.375 40.375 22.484375 35.828125 
Q 18.609375 31.296875 18.609375 23.390625 
Q 18.609375 15.53125 22.484375 10.953125 
Q 26.375 6.390625 33.015625 6.390625 
Q 39.65625 6.390625 43.53125 10.953125 
Q 47.40625 15.53125 47.40625 23.390625 
Q 47.40625 31.296875 43.53125 35.828125 
Q 39.65625 40.375 33.015625 40.375 
z
M 52.59375 71.296875 
L 52.59375 62.3125 
Q 48.875 64.0625 45.09375 64.984375 
Q 41.3125 65.921875 37.59375 65.921875 
Q 27.828125 65.921875 22.671875 59.328125 
Q 17.53125 52.734375 16.796875 39.40625 
Q 19.671875 43.65625 24.015625 45.921875 
Q 28.375 48.1875 33.59375 48.1875 
Q 44.578125 48.1875 50.953125 41.515625 
Q 57.328125 34.859375 57.328125 23.390625 
Q 57.328125 12.15625 50.6875 5.359375 
Q 44.046875 -1.421875 33.015625 -1.421875 
Q 20.359375 -1.421875 13.671875 8.265625 
Q 6.984375 17.96875 6.984375 36.375 
Q 6.984375 53.65625 15.1875 63.9375 
Q 23.390625 74.21875 37.203125 74.21875 
Q 40.921875 74.21875 44.703125 73.484375 
Q 48.484375 72.75 52.59375 71.296875 
z
" id="DejaVuSans-54"/>
      </defs>
      <g transform="translate(243.884801 266.598437)scale(0.1 -0.1)">
       <use xlink:href="#DejaVuSans-48"/>
       <use x="63.623047" xlink:href="#DejaVuSans-46"/>
       <use x="95.410156" xlink:href="#DejaVuSans-54"/>
      </g>
     </g>
    </g>
    <g id="xtick_5">
     <g id="line2d_5">
      <g>
       <use style="stroke:#000000;stroke-width:0.8;" x="312.709091" xlink:href="#mfbd83137ab" y="252"/>
      </g>
     </g>
     <g id="text_5">
      <!-- 0.8 -->
      <defs>
       <path d="M 31.78125 34.625 
Q 24.75 34.625 20.71875 30.859375 
Q 16.703125 27.09375 16.703125 20.515625 
Q 16.703125 13.921875 20.71875 10.15625 
Q 24.75 6.390625 31.78125 6.390625 
Q 38.8125 6.390625 42.859375 10.171875 
Q 46.921875 13.96875 46.921875 20.515625 
Q 46.921875 27.09375 42.890625 30.859375 
Q 38.875 34.625 31.78125 34.625 
z
M 21.921875 38.8125 
Q 15.578125 40.375 12.03125 44.71875 
Q 8.5 49.078125 8.5 55.328125 
Q 8.5 64.0625 14.71875 69.140625 
Q 20.953125 74.21875 31.78125 74.21875 
Q 42.671875 74.21875 48.875 69.140625 
Q 55.078125 64.0625 55.078125 55.328125 
Q 55.078125 49.078125 51.53125 44.71875 
Q 48 40.375 41.703125 38.8125 
Q 48.828125 37.15625 52.796875 32.3125 
Q 56.78125 27.484375 56.78125 20.515625 
Q 56.78125 9.90625 50.3125 4.234375 
Q 43.84375 -1.421875 31.78125 -1.421875 
Q 19.734375 -1.421875 13.25 4.234375 
Q 6.78125 9.90625 6.78125 20.515625 
Q 6.78125 27.484375 10.78125 32.3125 
Q 14.796875 37.15625 21.921875 38.8125 
z
M 18.3125 54.390625 
Q 18.3125 48.734375 21.84375 45.5625 
Q 25.390625 42.390625 31.78125 42.390625 
Q 38.140625 42.390625 41.71875 45.5625 
Q 45.3125 48.734375 45.3125 54.390625 
Q 45.3125 60.0625 41.71875 63.234375 
Q 38.140625 66.40625 31.78125 66.40625 
Q 25.390625 66.40625 21.84375 63.234375 
Q 18.3125 60.0625 18.3125 54.390625 
z
" id="DejaVuSans-56"/>
      </defs>
      <g transform="translate(304.757528 266.598437)scale(0.1 -0.1)">
       <use xlink:href="#DejaVuSans-48"/>
       <use x="63.623047" xlink:href="#DejaVuSans-46"/>
       <use x="95.410156" xlink:href="#DejaVuSans-56"/>
      </g>
     </g>
    </g>
    <g id="xtick_6">
     <g id="line2d_6">
      <g>
       <use style="stroke:#000000;stroke-width:0.8;" x="373.581818" xlink:href="#mfbd83137ab" y="252"/>
      </g>
     </g>
     <g id="text_6">
      <!-- 1.0 -->
      <defs>
       <path d="M 12.40625 8.296875 
L 28.515625 8.296875 
L 28.515625 63.921875 
L 10.984375 60.40625 
L 10.984375 69.390625 
L 28.421875 72.90625 
L 38.28125 72.90625 
L 38.28125 8.296875 
L 54.390625 8.296875 
L 54.390625 0 
L 12.40625 0 
z
" id="DejaVuSans-49"/>
      </defs>
      <g transform="translate(365.630256 266.598437)scale(0.1 -0.1)">
       <use xlink:href="#DejaVuSans-49"/>
       <use x="63.623047" xlink:href="#DejaVuSans-46"/>
       <use x="95.410156" xlink:href="#DejaVuSans-48"/>
      </g>
     </g>
    </g>
    <g id="text_7">
     <!-- False positive rate -->
     <defs>
      <path d="M 9.8125 72.90625 
L 51.703125 72.90625 
L 51.703125 64.59375 
L 19.671875 64.59375 
L 19.671875 43.109375 
L 48.578125 43.109375 
L 48.578125 34.8125 
L 19.671875 34.8125 
L 19.671875 0 
L 9.8125 0 
z
" id="DejaVuSans-70"/>
      <path d="M 34.28125 27.484375 
Q 23.390625 27.484375 19.1875 25 
Q 14.984375 22.515625 14.984375 16.5 
Q 14.984375 11.71875 18.140625 8.90625 
Q 21.296875 6.109375 26.703125 6.109375 
Q 34.1875 6.109375 38.703125 11.40625 
Q 43.21875 16.703125 43.21875 25.484375 
L 43.21875 27.484375 
z
M 52.203125 31.203125 
L 52.203125 0 
L 43.21875 0 
L 43.21875 8.296875 
Q 40.140625 3.328125 35.546875 0.953125 
Q 30.953125 -1.421875 24.3125 -1.421875 
Q 15.921875 -1.421875 10.953125 3.296875 
Q 6 8.015625 6 15.921875 
Q 6 25.140625 12.171875 29.828125 
Q 18.359375 34.515625 30.609375 34.515625 
L 43.21875 34.515625 
L 43.21875 35.40625 
Q 43.21875 41.609375 39.140625 45 
Q 35.0625 48.390625 27.6875 48.390625 
Q 23 48.390625 18.546875 47.265625 
Q 14.109375 46.140625 10.015625 43.890625 
L 10.015625 52.203125 
Q 14.9375 54.109375 19.578125 55.046875 
Q 24.21875 56 28.609375 56 
Q 40.484375 56 46.34375 49.84375 
Q 52.203125 43.703125 52.203125 31.203125 
z
" id="DejaVuSans-97"/>
      <path d="M 9.421875 75.984375 
L 18.40625 75.984375 
L 18.40625 0 
L 9.421875 0 
z
" id="DejaVuSans-108"/>
      <path d="M 44.28125 53.078125 
L 44.28125 44.578125 
Q 40.484375 46.53125 36.375 47.5 
Q 32.28125 48.484375 27.875 48.484375 
Q 21.1875 48.484375 17.84375 46.4375 
Q 14.5 44.390625 14.5 40.28125 
Q 14.5 37.15625 16.890625 35.375 
Q 19.28125 33.59375 26.515625 31.984375 
L 29.59375 31.296875 
Q 39.15625 29.25 43.1875 25.515625 
Q 47.21875 21.78125 47.21875 15.09375 
Q 47.21875 7.46875 41.1875 3.015625 
Q 35.15625 -1.421875 24.609375 -1.421875 
Q 20.21875 -1.421875 15.453125 -0.5625 
Q 10.6875 0.296875 5.421875 2 
L 5.421875 11.28125 
Q 10.40625 8.6875 15.234375 7.390625 
Q 20.0625 6.109375 24.8125 6.109375 
Q 31.15625 6.109375 34.5625 8.28125 
Q 37.984375 10.453125 37.984375 14.40625 
Q 37.984375 18.0625 35.515625 20.015625 
Q 33.0625 21.96875 24.703125 23.78125 
L 21.578125 24.515625 
Q 13.234375 26.265625 9.515625 29.90625 
Q 5.8125 33.546875 5.8125 39.890625 
Q 5.8125 47.609375 11.28125 51.796875 
Q 16.75 56 26.8125 56 
Q 31.78125 56 36.171875 55.265625 
Q 40.578125 54.546875 44.28125 53.078125 
z
" id="DejaVuSans-115"/>
      <path d="M 56.203125 29.59375 
L 56.203125 25.203125 
L 14.890625 25.203125 
Q 15.484375 15.921875 20.484375 11.0625 
Q 25.484375 6.203125 34.421875 6.203125 
Q 39.59375 6.203125 44.453125 7.46875 
Q 49.3125 8.734375 54.109375 11.28125 
L 54.109375 2.78125 
Q 49.265625 0.734375 44.1875 -0.34375 
Q 39.109375 -1.421875 33.890625 -1.421875 
Q 20.796875 -1.421875 13.15625 6.1875 
Q 5.515625 13.8125 5.515625 26.8125 
Q 5.515625 40.234375 12.765625 48.109375 
Q 20.015625 56 32.328125 56 
Q 43.359375 56 49.78125 48.890625 
Q 56.203125 41.796875 56.203125 29.59375 
z
M 47.21875 32.234375 
Q 47.125 39.59375 43.09375 43.984375 
Q 39.0625 48.390625 32.421875 48.390625 
Q 24.90625 48.390625 20.390625 44.140625 
Q 15.875 39.890625 15.1875 32.171875 
z
" id="DejaVuSans-101"/>
      <path id="DejaVuSans-32"/>
      <path d="M 18.109375 8.203125 
L 18.109375 -20.796875 
L 9.078125 -20.796875 
L 9.078125 54.6875 
L 18.109375 54.6875 
L 18.109375 46.390625 
Q 20.953125 51.265625 25.265625 53.625 
Q 29.59375 56 35.59375 56 
Q 45.5625 56 51.78125 48.09375 
Q 58.015625 40.1875 58.015625 27.296875 
Q 58.015625 14.40625 51.78125 6.484375 
Q 45.5625 -1.421875 35.59375 -1.421875 
Q 29.59375 -1.421875 25.265625 0.953125 
Q 20.953125 3.328125 18.109375 8.203125 
z
M 48.6875 27.296875 
Q 48.6875 37.203125 44.609375 42.84375 
Q 40.53125 48.484375 33.40625 48.484375 
Q 26.265625 48.484375 22.1875 42.84375 
Q 18.109375 37.203125 18.109375 27.296875 
Q 18.109375 17.390625 22.1875 11.75 
Q 26.265625 6.109375 33.40625 6.109375 
Q 40.53125 6.109375 44.609375 11.75 
Q 48.6875 17.390625 48.6875 27.296875 
z
" id="DejaVuSans-112"/>
      <path d="M 30.609375 48.390625 
Q 23.390625 48.390625 19.1875 42.75 
Q 14.984375 37.109375 14.984375 27.296875 
Q 14.984375 17.484375 19.15625 11.84375 
Q 23.34375 6.203125 30.609375 6.203125 
Q 37.796875 6.203125 41.984375 11.859375 
Q 46.1875 17.53125 46.1875 27.296875 
Q 46.1875 37.015625 41.984375 42.703125 
Q 37.796875 48.390625 30.609375 48.390625 
z
M 30.609375 56 
Q 42.328125 56 49.015625 48.375 
Q 55.71875 40.765625 55.71875 27.296875 
Q 55.71875 13.875 49.015625 6.21875 
Q 42.328125 -1.421875 30.609375 -1.421875 
Q 18.84375 -1.421875 12.171875 6.21875 
Q 5.515625 13.875 5.515625 27.296875 
Q 5.515625 40.765625 12.171875 48.375 
Q 18.84375 56 30.609375 56 
z
" id="DejaVuSans-111"/>
      <path d="M 9.421875 54.6875 
L 18.40625 54.6875 
L 18.40625 0 
L 9.421875 0 
z
M 9.421875 75.984375 
L 18.40625 75.984375 
L 18.40625 64.59375 
L 9.421875 64.59375 
z
" id="DejaVuSans-105"/>
      <path d="M 18.3125 70.21875 
L 18.3125 54.6875 
L 36.8125 54.6875 
L 36.8125 47.703125 
L 18.3125 47.703125 
L 18.3125 18.015625 
Q 18.3125 11.328125 20.140625 9.421875 
Q 21.96875 7.515625 27.59375 7.515625 
L 36.8125 7.515625 
L 36.8125 0 
L 27.59375 0 
Q 17.1875 0 13.234375 3.875 
Q 9.28125 7.765625 9.28125 18.015625 
L 9.28125 47.703125 
L 2.6875 47.703125 
L 2.6875 54.6875 
L 9.28125 54.6875 
L 9.28125 70.21875 
z
" id="DejaVuSans-116"/>
      <path d="M 2.984375 54.6875 
L 12.5 54.6875 
L 29.59375 8.796875 
L 46.6875 54.6875 
L 56.203125 54.6875 
L 35.6875 0 
L 23.484375 0 
z
" id="DejaVuSans-118"/>
      <path d="M 41.109375 46.296875 
Q 39.59375 47.171875 37.8125 47.578125 
Q 36.03125 48 33.890625 48 
Q 26.265625 48 22.1875 43.046875 
Q 18.109375 38.09375 18.109375 28.8125 
L 18.109375 0 
L 9.078125 0 
L 9.078125 54.6875 
L 18.109375 54.6875 
L 18.109375 46.1875 
Q 20.953125 51.171875 25.484375 53.578125 
Q 30.03125 56 36.53125 56 
Q 37.453125 56 38.578125 55.875 
Q 39.703125 55.765625 41.0625 55.515625 
z
" id="DejaVuSans-114"/>
     </defs>
     <g transform="translate(175.45 280.276563)scale(0.1 -0.1)">
      <use xlink:href="#DejaVuSans-70"/>
      <use x="57.378906" xlink:href="#DejaVuSans-97"/>
      <use x="118.658203" xlink:href="#DejaVuSans-108"/>
      <use x="146.441406" xlink:href="#DejaVuSans-115"/>
      <use x="198.541016" xlink:href="#DejaVuSans-101"/>
      <use x="260.064453" xlink:href="#DejaVuSans-32"/>
      <use x="291.851562" xlink:href="#DejaVuSans-112"/>
      <use x="355.328125" xlink:href="#DejaVuSans-111"/>
      <use x="416.509766" xlink:href="#DejaVuSans-115"/>
      <use x="468.609375" xlink:href="#DejaVuSans-105"/>
      <use x="496.392578" xlink:href="#DejaVuSans-116"/>
      <use x="535.601562" xlink:href="#DejaVuSans-105"/>
      <use x="563.384766" xlink:href="#DejaVuSans-118"/>
      <use x="622.564453" xlink:href="#DejaVuSans-101"/>
      <use x="684.087891" xlink:href="#DejaVuSans-32"/>
      <use x="715.875" xlink:href="#DejaVuSans-114"/>
      <use x="756.988281" xlink:href="#DejaVuSans-97"/>
      <use x="818.267578" xlink:href="#DejaVuSans-116"/>
      <use x="857.476562" xlink:href="#DejaVuSans-101"/>
     </g>
    </g>
   </g>
   <g id="matplotlib.axis_2">
    <g id="ytick_1">
     <g id="line2d_7">
      <defs>
       <path d="M 0 0 
L -3.5 0 
" id="m3e9db031c8" style="stroke:#000000;stroke-width:0.8;"/>
      </defs>
      <g>
       <use style="stroke:#000000;stroke-width:0.8;" x="54" xlink:href="#m3e9db031c8" y="242.116364"/>
      </g>
     </g>
     <g id="text_8">
      <!-- 0.0 -->
      <g transform="translate(31.096875 245.915582)scale(0.1 -0.1)">
       <use xlink:href="#DejaVuSans-48"/>
       <use x="63.623047" xlink:href="#DejaVuSans-46"/>
       <use x="95.410156" xlink:href="#DejaVuSans-48"/>
      </g>
     </g>
    </g>
    <g id="ytick_2">
     <g id="line2d_8">
      <g>
       <use style="stroke:#000000;stroke-width:0.8;" x="54" xlink:href="#m3e9db031c8" y="202.581818"/>
      </g>
     </g>
     <g id="text_9">
      <!-- 0.2 -->
      <g transform="translate(31.096875 206.381037)scale(0.1 -0.1)">
       <use xlink:href="#DejaVuSans-48"/>
       <use x="63.623047" xlink:href="#DejaVuSans-46"/>
       <use x="95.410156" xlink:href="#DejaVuSans-50"/>
      </g>
     </g>
    </g>
    <g id="ytick_3">
     <g id="line2d_9">
      <g>
       <use style="stroke:#000000;stroke-width:0.8;" x="54" xlink:href="#m3e9db031c8" y="163.047273"/>
      </g>
     </g>
     <g id="text_10">
      <!-- 0.4 -->
      <g transform="translate(31.096875 166.846491)scale(0.1 -0.1)">
       <use xlink:href="#DejaVuSans-48"/>
       <use x="63.623047" xlink:href="#DejaVuSans-46"/>
       <use x="95.410156" xlink:href="#DejaVuSans-52"/>
      </g>
     </g>
    </g>
    <g id="ytick_4">
     <g id="line2d_10">
      <g>
       <use style="stroke:#000000;stroke-width:0.8;" x="54" xlink:href="#m3e9db031c8" y="123.512727"/>
      </g>
     </g>
     <g id="text_11">
      <!-- 0.6 -->
      <g transform="translate(31.096875 127.311946)scale(0.1 -0.1)">
       <use xlink:href="#DejaVuSans-48"/>
       <use x="63.623047" xlink:href="#DejaVuSans-46"/>
       <use x="95.410156" xlink:href="#DejaVuSans-54"/>
      </g>
     </g>
    </g>
    <g id="ytick_5">
     <g id="line2d_11">
      <g>
       <use style="stroke:#000000;stroke-width:0.8;" x="54" xlink:href="#m3e9db031c8" y="83.978182"/>
      </g>
     </g>
     <g id="text_12">
      <!-- 0.8 -->
      <g transform="translate(31.096875 87.777401)scale(0.1 -0.1)">
       <use xlink:href="#DejaVuSans-48"/>
       <use x="63.623047" xlink:href="#DejaVuSans-46"/>
       <use x="95.410156" xlink:href="#DejaVuSans-56"/>
      </g>
     </g>
    </g>
    <g id="ytick_6">
     <g id="line2d_12">
      <g>
       <use style="stroke:#000000;stroke-width:0.8;" x="54" xlink:href="#m3e9db031c8" y="44.443636"/>
      </g>
     </g>
     <g id="text_13">
      <!-- 1.0 -->
      <g transform="translate(31.096875 48.242855)scale(0.1 -0.1)">
       <use xlink:href="#DejaVuSans-49"/>
       <use x="63.623047" xlink:href="#DejaVuSans-46"/>
       <use x="95.410156" xlink:href="#DejaVuSans-48"/>
      </g>
     </g>
    </g>
    <g id="text_14">
     <!-- True positive rate -->
     <defs>
      <path d="M -0.296875 72.90625 
L 61.375 72.90625 
L 61.375 64.59375 
L 35.5 64.59375 
L 35.5 0 
L 25.59375 0 
L 25.59375 64.59375 
L -0.296875 64.59375 
z
" id="DejaVuSans-84"/>
      <path d="M 8.5 21.578125 
L 8.5 54.6875 
L 17.484375 54.6875 
L 17.484375 21.921875 
Q 17.484375 14.15625 20.5 10.265625 
Q 23.53125 6.390625 29.59375 6.390625 
Q 36.859375 6.390625 41.078125 11.03125 
Q 45.3125 15.671875 45.3125 23.6875 
L 45.3125 54.6875 
L 54.296875 54.6875 
L 54.296875 0 
L 45.3125 0 
L 45.3125 8.40625 
Q 42.046875 3.421875 37.71875 1 
Q 33.40625 -1.421875 27.6875 -1.421875 
Q 18.265625 -1.421875 13.375 4.4375 
Q 8.5 10.296875 8.5 21.578125 
z
M 31.109375 56 
z
" id="DejaVuSans-117"/>
     </defs>
     <g transform="translate(25.017187 187.570625)rotate(-90)scale(0.1 -0.1)">
      <use xlink:href="#DejaVuSans-84"/>
      <use x="60.865234" xlink:href="#DejaVuSans-114"/>
      <use x="101.978516" xlink:href="#DejaVuSans-117"/>
      <use x="165.357422" xlink:href="#DejaVuSans-101"/>
      <use x="226.880859" xlink:href="#DejaVuSans-32"/>
      <use x="258.667969" xlink:href="#DejaVuSans-112"/>
      <use x="322.144531" xlink:href="#DejaVuSans-111"/>
      <use x="383.326172" xlink:href="#DejaVuSans-115"/>
      <use x="435.425781" xlink:href="#DejaVuSans-105"/>
      <use x="463.208984" xlink:href="#DejaVuSans-116"/>
      <use x="502.417969" xlink:href="#DejaVuSans-105"/>
      <use x="530.201172" xlink:href="#DejaVuSans-118"/>
      <use x="589.380859" xlink:href="#DejaVuSans-101"/>
      <use x="650.904297" xlink:href="#DejaVuSans-32"/>
      <use x="682.691406" xlink:href="#DejaVuSans-114"/>
      <use x="723.804688" xlink:href="#DejaVuSans-97"/>
      <use x="785.083984" xlink:href="#DejaVuSans-116"/>
      <use x="824.292969" xlink:href="#DejaVuSans-101"/>
     </g>
    </g>
   </g>
   <g id="line2d_13">
    <path clip-path="url(#pf5c250fcd1)" d="M 69.218182 242.116364 
L 373.581818 44.443636 
" style="fill:none;stroke:#000000;stroke-dasharray:5.55,2.4;stroke-dashoffset:0;stroke-width:1.5;"/>
   </g>
   <g id="line2d_14">
    <path clip-path="url(#pf5c250fcd1)" d="M 69.218182 242.116364 
L 69.385582 192.72042 
L 69.625268 180.884765 
L 69.689945 179.580125 
L 69.800277 177.618224 
L 69.804082 177.502091 
L 69.914414 174.537 
L 69.960068 173.7216 
L 70.0704 169.088645 
L 70.093227 168.811904 
L 70.203559 167.447962 
L 70.222582 167.242876 
L 70.332914 165.021529 
L 70.378568 164.403802 
L 70.4889 162.758176 
L 70.53075 162.434487 
L 70.641082 161.068075 
L 70.644886 161.068075 
L 70.644886 160.97418 
L 70.686736 160.272442 
L 70.797068 158.878849 
L 70.808482 158.849198 
L 70.808482 158.846727 
L 70.918814 155.125538 
L 70.937836 155.061295 
L 70.937836 155.019289 
L 71.048168 154.067989 
L 71.070995 154.045751 
L 71.070995 153.964211 
L 71.181327 153.007969 
L 71.211764 152.919016 
L 71.211764 152.899249 
L 71.322095 150.331975 
L 71.344923 150.228196 
L 71.344923 150.225725 
L 71.455255 149.034747 
L 71.474277 148.93344 
L 71.474277 148.926027 
L 71.584609 148.216876 
L 71.603632 148.189696 
L 71.603632 148.122982 
L 71.732986 142.049487 
L 71.767227 141.898762 
L 71.877559 140.88816 
L 71.896582 140.789324 
L 71.896582 140.781911 
L 72.006914 140.001104 
L 72.022132 139.917093 
L 72.022132 139.892384 
L 72.132464 139.126402 
L 72.151486 138.98556 
L 72.258014 138.486436 
L 72.261818 138.486436 
L 72.299864 138.27888 
L 72.410195 136.094596 
L 72.417805 136.055062 
L 72.417805 135.985876 
L 72.528136 135.046931 
L 72.562377 134.893735 
L 72.672709 134.01162 
L 72.684123 133.972085 
L 72.821086 133.043024 
L 72.843914 132.9516 
L 72.843914 132.934304 
L 72.954245 132.427767 
L 72.977073 132.281984 
L 73.087405 131.575304 
L 73.117841 131.436933 
L 73.228173 129.017913 
L 73.243391 128.993204 
L 73.243391 128.968495 
L 73.37655 127.871411 
L 73.395573 127.767633 
L 73.395573 127.765162 
L 73.505905 127.083191 
L 73.517318 127.018947 
L 73.517318 126.976942 
L 73.62765 125.798318 
L 73.654282 125.711836 
L 73.654282 125.697011 
L 73.764614 125.175649 
L 73.787441 125.0694 
L 73.897773 124.565335 
L 73.909186 124.535684 
L 73.909186 124.515916 
L 74.038541 122.012885 
L 74.061368 121.909107 
L 74.1717 121.266671 
L 74.209745 121.170305 
L 74.209745 121.162893 
L 74.320077 120.730484 
L 74.3391 120.681065 
L 74.3391 120.621764 
L 74.445627 120.092989 
L 74.460845 120.011449 
L 74.460845 119.984269 
L 74.571177 119.625987 
L 74.582591 119.621045 
L 74.582591 119.593865 
L 74.692923 118.939075 
L 74.727164 118.884715 
L 74.727164 118.832825 
L 74.837495 118.308993 
L 74.879345 118.222511 
L 74.879345 118.202744 
L 74.989677 117.463942 
L 75.004895 117.382402 
L 75.004895 117.357693 
L 75.084791 114.676756 
L 75.290236 112.551775 
L 75.316868 112.445525 
L 75.4272 112.111953 
L 75.438614 112.005704 
L 75.548945 111.546115 
L 75.579382 111.442336 
L 75.579382 111.437395 
L 75.689714 110.958038 
L 75.716345 110.85426 
L 75.826677 109.944965 
L 75.849505 109.843658 
L 75.849505 109.836245 
L 75.959836 109.307471 
L 76.009295 109.201222 
L 76.119627 108.682331 
L 76.169086 108.590907 
L 76.169086 108.573611 
L 76.279418 107.931175 
L 76.313659 107.824925 
L 76.423991 107.343098 
L 76.446818 107.249204 
L 76.446818 107.244262 
L 76.55715 106.878567 
L 76.587586 106.792085 
L 76.697918 106.026104 
L 76.735964 105.917384 
L 76.846295 105.423202 
L 76.876732 105.319424 
L 76.876732 105.316953 
L 76.987064 104.775824 
L 77.006086 104.751115 
L 77.006086 104.669575 
L 77.116418 104.108678 
L 77.139245 104.007371 
L 77.139245 103.999958 
L 77.245773 103.772635 
L 77.257186 103.720745 
L 77.257186 103.668856 
L 77.363714 103.362464 
L 77.401759 103.258685 
L 77.401759 103.253744 
L 77.512091 102.947351 
L 77.538723 102.838631 
L 77.64525 102.3741 
L 77.694709 102.275264 
L 77.694709 102.267851 
L 77.805041 101.697071 
L 77.831673 101.588351 
L 77.942005 101.235011 
L 77.964832 101.146058 
L 77.964832 101.131233 
L 78.075164 100.708707 
L 78.094186 100.609871 
L 78.094186 100.602458 
L 78.204518 100.170049 
L 78.23115 100.0638 
L 78.341482 99.564676 
L 78.383332 99.475724 
L 78.383332 99.460898 
L 78.489859 99.134738 
L 78.527905 99.033431 
L 78.527905 99.028489 
L 78.638236 98.709742 
L 78.668673 98.601022 
L 78.779005 98.141433 
L 78.820855 98.037655 
L 78.820855 98.035184 
L 78.931186 97.607716 
L 78.976841 97.498996 
L 79.087173 97.083884 
L 79.129023 96.989989 
L 79.129023 96.977635 
L 79.239355 96.619353 
L 79.307836 96.513104 
L 79.414364 96.09552 
L 79.437191 95.996684 
L 79.547523 95.712529 
L 79.574155 95.611222 
L 79.574155 95.608751 
L 79.684486 95.220818 
L 79.733945 95.119511 
L 79.733945 95.112098 
L 79.844277 94.785938 
L 79.859495 94.716753 
L 79.859495 94.706869 
L 80.034505 94.11138 
L 80.045918 94.0842 
L 80.106791 93.701209 
L 80.487245 91.835673 
L 80.555727 91.731895 
L 80.666059 91.484804 
L 80.696495 91.381025 
L 80.696495 91.376084 
L 80.806827 90.980738 
L 80.829655 90.874489 
L 80.936182 90.568096 
L 81.000859 90.461847 
L 81.103582 90.222169 
L 81.183477 90.11592 
L 81.293809 89.856475 
L 81.350877 89.747755 
L 81.461209 89.374647 
L 81.510668 89.265927 
L 81.621 89.095435 
L 81.666655 88.994127 
L 81.776986 88.747036 
L 81.815032 88.667967 
L 81.815032 88.638316 
L 81.921559 88.398638 
L 81.963409 88.29486 
L 82.069936 88.1046 
L 82.100373 88.010705 
L 82.100373 87.998351 
L 82.210705 87.768556 
L 82.256359 87.667249 
L 82.256359 87.659836 
L 82.362886 87.378153 
L 82.408541 87.279316 
L 82.408541 87.269433 
L 82.518873 87.054464 
L 82.575941 86.945744 
L 82.686273 86.753013 
L 82.735732 86.654176 
L 82.735732 86.646764 
L 82.846064 86.397202 
L 82.895523 86.290953 
L 83.00205 86.113047 
L 83.062923 86.026565 
L 83.062923 86.024095 
L 83.256955 85.445902 
L 83.302609 85.354478 
L 83.302609 85.339653 
L 83.412941 85.038202 
L 83.4624 84.961604 
L 83.4624 84.931953 
L 83.572732 84.739222 
L 83.652627 84.637915 
L 83.652627 84.635444 
L 83.865682 84.175855 
L 83.911336 84.072076 
L 83.911336 84.067135 
L 84.021668 83.859578 
L 84.093955 83.750858 
L 84.204286 83.612487 
L 84.287986 83.508709 
L 84.398318 83.340687 
L 84.432559 83.236909 
L 84.535282 82.999702 
L 84.603764 82.903336 
L 84.603764 82.890982 
L 84.714095 82.636478 
L 84.774968 82.530229 
L 84.774968 82.527758 
L 84.8853 82.317731 
L 84.953782 82.218895 
L 84.953782 82.209011 
L 85.060309 82.068169 
L 85.163032 81.959449 
L 85.273364 81.754364 
L 85.326627 81.657998 
L 85.326627 81.655527 
L 85.433155 81.492447 
L 85.478809 81.4455 
L 85.866873 80.864836 
L 85.958182 80.758587 
L 86.068514 80.551031 
L 86.129386 80.489258 
L 86.129386 80.471962 
L 86.239718 80.252051 
L 86.312005 80.150744 
L 86.410923 80.042024 
L 86.532668 79.933304 
L 86.643 79.780107 
L 86.707677 79.673858 
L 86.814205 79.565138 
L 86.920732 79.456418 
L 87.031064 79.295809 
L 87.137591 79.18956 
L 87.244118 79.070956 
L 87.346841 78.964707 
L 87.453368 78.843633 
L 87.537068 78.734913 
L 87.632182 78.5916 
L 87.643595 78.5916 
L 87.727295 78.48288 
L 87.833823 78.366747 
L 87.837627 78.366747 
L 88.054486 78.099889 
L 88.164818 77.956576 
L 88.256127 77.847856 
L 88.366459 77.719369 
L 88.44255 77.625475 
L 88.44255 77.61312 
L 88.552882 77.501929 
L 88.667018 77.408035 
L 88.667018 77.39568 
L 88.765936 77.301785 
L 88.845832 77.217775 
L 88.845832 77.193065 
L 88.956164 77.064578 
L 89.089323 76.958329 
L 89.19585 76.837255 
L 89.317595 76.728535 
L 89.427927 76.609931 
L 89.515432 76.503682 
L 89.625764 76.320835 
L 89.732291 76.212115 
L 89.835014 76.125633 
L 89.979586 76.024325 
L 89.979586 76.016913 
L 90.089918 75.893367 
L 90.245905 75.789589 
L 90.348627 75.685811 
L 90.500809 75.577091 
L 90.611141 75.460958 
L 90.820391 75.362122 
L 90.820391 75.359651 
L 90.976377 75.228693 
L 91.071491 75.119973 
L 91.178018 75.016195 
L 91.280741 74.914887 
L 91.280741 74.912416 
L 91.505209 74.630733 
L 91.645977 74.522013 
L 91.752505 74.430589 
L 91.847618 74.321869 
L 91.954145 74.21562 
L 92.064477 74.114313 
L 92.064477 74.109371 
L 92.174809 73.975942 
L 92.29275 73.867222 
L 92.403082 73.783211 
L 92.540045 73.696729 
L 92.540045 73.681904 
L 92.650377 73.59048 
L 92.813973 73.494115 
L 92.924305 73.370569 
L 93.04605 73.26432 
L 93.156382 73.160542 
L 93.308564 73.051822 
L 93.411286 72.962869 
L 93.517814 72.85662 
L 93.8412 72.587291 
L 94.309159 72.280898 
L 98.159359 67.032687 
L 98.376218 66.941264 
L 98.376218 66.923967 
L 98.482745 66.872078 
L 98.711018 66.763358 
L 98.813741 66.701585 
L 99.353986 66.348245 
L 99.460514 66.323536 
L 99.711614 66.214816 
L 99.810532 66.155515 
L 100.042609 66.049265 
L 100.141527 65.994905 
L 100.400236 65.886185 
L 100.510568 65.829355 
L 100.74645 65.720635 
L 100.856782 65.589676 
L 101.069836 65.480956 
L 101.180168 65.438951 
L 101.446486 65.332702 
L 101.446486 65.330231 
L 101.5416 65.258575 
L 101.838355 65.149855 
L 101.948686 65.08314 
L 102.150327 64.981833 
L 102.150327 64.976891 
L 102.256855 64.917589 
L 102.549805 64.808869 
L 102.656332 64.719916 
L 102.949282 64.611196 
L 103.059614 64.564249 
L 103.253645 64.458 
L 103.352564 64.415995 
L 103.664536 64.309745 
L 103.664536 64.307275 
L 103.771064 64.230676 
L 104.064014 64.121956 
L 104.174345 64.082422 
L 104.497732 63.973702 
L 104.604259 63.919342 
L 104.923841 63.803209 
L 105.125482 63.699431 
L 105.125482 63.69696 
L 105.232009 63.662367 
L 105.380386 63.590711 
L 106.164123 63.178069 
L 106.52175 63.07182 
L 106.52175 63.069349 
L 106.632082 63.007576 
L 107.039168 62.898856 
L 107.1495 62.85438 
L 107.488105 62.750602 
L 107.488105 62.74566 
L 107.598436 62.686358 
L 107.94465 62.577638 
L 108.054982 62.540575 
L 108.405 62.434325 
L 108.405 62.431855 
L 108.507723 62.399733 
L 108.880568 62.291013 
L 108.9909 62.244065 
L 109.413205 62.135345 
L 109.485491 62.113107 
L 109.4931 62.113107 
L 109.980082 61.905551 
L 110.333905 61.804244 
L 110.333905 61.799302 
L 110.444236 61.754825 
L 110.862736 61.651047 
L 110.862736 61.648576 
L 110.973068 61.618925 
L 111.330695 61.510205 
L 111.441027 61.473142 
L 111.661691 61.428665 
L 112.913386 60.882595 
L 113.392759 60.773875 
L 113.503091 60.749165 
L 113.891155 60.640445 
L 113.997682 60.583615 
L 114.465641 60.474895 
L 114.568364 60.460069 
L 114.735764 60.43536 
L 118.528895 59.548304 
L 121.987227 58.609358 
L 128.382668 57.314602 
L 128.473977 57.284951 
L 128.945741 57.176231 
L 129.052268 57.168818 
L 129.607732 57.060098 
L 129.718064 57.027976 
L 130.254505 56.919256 
L 130.338205 56.90196 
L 130.992586 56.79324 
L 131.072482 56.778415 
L 131.677405 56.672165 
L 131.772518 56.654869 
L 132.533427 56.546149 
L 133.092695 56.462138 
L 134.081877 56.355889 
L 134.192209 56.321296 
L 134.713432 56.227402 
L 134.713432 56.22246 
L 134.8542 56.182925 
L 135.577064 56.074205 
L 135.577064 56.071735 
L 135.584673 56.071735 
L 139.138118 55.550373 
L 146.210768 54.61884 
L 146.313491 54.589189 
L 147.295064 54.48294 
L 147.378764 54.465644 
L 148.055973 54.359395 
L 148.154891 54.334685 
L 149.151682 54.235849 
L 149.714755 54.164193 
L 150.780027 54.057944 
L 150.780027 54.053002 
L 150.787636 54.053002 
L 153.416577 53.761435 
L 153.500277 53.741667 
L 153.523105 53.741667 
L 154.557941 53.642831 
L 156.418364 53.410565 
L 156.517282 53.39574 
L 156.528695 53.39574 
L 157.864091 53.28702 
L 157.966814 53.262311 
L 158.663045 53.190655 
L 165.161209 52.644584 
L 165.244909 52.629758 
L 166.580305 52.521038 
L 166.683027 52.491387 
L 168.140168 52.382667 
L 168.235282 52.370313 
L 169.175005 52.261593 
L 169.285336 52.246767 
L 170.297345 52.138047 
L 170.346805 52.130635 
L 170.407677 52.130635 
L 171.982759 52.024385 
L 171.982759 52.021915 
L 172.05885 52.00956 
L 173.173582 51.903311 
L 173.261086 51.886015 
L 173.283914 51.886015 
L 174.756273 51.777295 
L 174.786709 51.76494 
L 176.468318 51.658691 
L 176.57865 51.648807 
L 177.818932 51.540087 
L 177.929264 51.525262 
L 179.454886 51.416542 
L 179.530977 51.401716 
L 180.942464 51.292996 
L 180.965291 51.288055 
L 182.540373 51.179335 
L 182.635486 51.164509 
L 182.643095 51.164509 
L 184.012732 51.055789 
L 184.107845 51.043435 
L 185.336714 50.934715 
L 185.435632 50.924831 
L 186.987886 50.816111 
L 187.044955 50.803756 
L 188.650473 50.695036 
L 188.669495 50.687624 
L 188.730368 50.687624 
L 190.278818 50.578904 
L 190.316864 50.571491 
L 191.796832 50.465242 
L 191.903359 50.450416 
L 193.185491 50.341696 
L 193.257777 50.326871 
L 195.407345 50.218151 
L 195.414955 50.213209 
L 195.49485 50.213209 
L 196.974818 50.104489 
L 197.062323 50.092135 
L 198.534682 49.985885 
L 198.599359 49.966118 
L 198.610773 49.966118 
L 200.239118 49.857398 
L 200.338036 49.845044 
L 201.924532 49.736324 
L 201.970186 49.731382 
L 203.625164 49.622662 
L 203.720277 49.610307 
L 205.565482 49.504058 
L 205.641573 49.494175 
L 207.273723 49.385455 
L 207.334595 49.370629 
L 208.711841 49.261909 
L 208.814564 49.249555 
L 210.781514 49.143305 
L 210.8538 49.130951 
L 213.151745 49.022231 
L 213.235445 49.012347 
L 213.243055 49.012347 
L 215.442082 48.903627 
L 215.552414 48.896215 
L 217.08945 48.787495 
L 217.135105 48.780082 
L 217.184564 48.780082 
L 219.436855 48.671362 
L 219.543382 48.659007 
L 221.5674 48.550287 
L 221.616859 48.540404 
L 223.907195 48.431684 
L 223.964264 48.411916 
L 225.721964 48.303196 
L 225.782836 48.298255 
L 225.828491 48.298255 
L 228.004691 48.189535 
L 228.225355 48.174709 
L 230.169477 48.065989 
L 230.2722 48.051164 
L 232.018486 47.942444 
L 232.086968 47.930089 
L 234.3735 47.82384 
L 234.3735 47.818898 
L 237.542686 47.710178 
L 237.645409 47.700295 
L 240.087927 47.591575 
L 240.164018 47.584162 
L 242.682627 47.475442 
L 242.709259 47.4705 
L 242.720673 47.4705 
L 245.109927 47.36178 
L 245.342005 47.337071 
L 248.678591 47.228351 
L 248.724245 47.220938 
L 248.785118 47.220938 
L 251.486345 47.112218 
L 251.547218 47.102335 
L 253.810923 46.993615 
L 253.810923 46.991144 
L 253.921255 46.991144 
L 256.576827 46.882424 
L 256.649114 46.87254 
L 256.687159 46.87254 
L 259.194355 46.76382 
L 259.194355 46.758878 
L 259.300882 46.758878 
L 261.834709 46.650158 
L 261.834709 46.647687 
L 261.933627 46.647687 
L 265.182709 46.538967 
L 265.353914 46.524142 
L 267.651859 46.415422 
L 267.8535 46.41048 
L 270.558532 46.30176 
L 270.558532 46.299289 
L 270.653645 46.299289 
L 273.727718 46.190569 
L 273.773373 46.183156 
L 273.822832 46.183156 
L 276.619173 46.074436 
L 276.763745 46.067024 
L 279.925323 45.958304 
L 280.294364 45.953362 
L 284.034232 45.844642 
L 284.13315 45.834758 
L 284.144564 45.834758 
L 287.39745 45.726038 
L 287.492564 45.721096 
L 291.715609 45.612376 
L 292.035191 45.592609 
L 296.497923 45.483889 
L 297.076214 45.469064 
L 301.580795 45.360344 
L 301.79385 45.352931 
L 306.610405 45.244211 
L 306.929986 45.231856 
L 309.981232 45.162671 
L 315.642395 45.053951 
L 318.453955 44.982295 
L 322.947123 44.930405 
L 330.415445 44.821685 
L 336.517936 44.722849 
L 344.5227 44.628955 
L 373.581818 44.443636 
L 373.581818 44.443636 
" style="fill:none;stroke:#1f77b4;stroke-linecap:square;stroke-width:1.5;"/>
   </g>
   <g id="patch_3">
    <path d="M 54 252 
L 54 34.56 
" style="fill:none;stroke:#000000;stroke-linecap:square;stroke-linejoin:miter;stroke-width:0.8;"/>
   </g>
   <g id="patch_4">
    <path d="M 388.8 252 
L 388.8 34.56 
" style="fill:none;stroke:#000000;stroke-linecap:square;stroke-linejoin:miter;stroke-width:0.8;"/>
   </g>
   <g id="patch_5">
    <path d="M 54 252 
L 388.8 252 
" style="fill:none;stroke:#000000;stroke-linecap:square;stroke-linejoin:miter;stroke-width:0.8;"/>
   </g>
   <g id="patch_6">
    <path d="M 54 34.56 
L 388.8 34.56 
" style="fill:none;stroke:#000000;stroke-linecap:square;stroke-linejoin:miter;stroke-width:0.8;"/>
   </g>
   <g id="text_15">
    <!-- ROC curve -->
    <defs>
     <path d="M 44.390625 34.1875 
Q 47.5625 33.109375 50.5625 29.59375 
Q 53.5625 26.078125 56.59375 19.921875 
L 66.609375 0 
L 56 0 
L 46.6875 18.703125 
Q 43.0625 26.03125 39.671875 28.421875 
Q 36.28125 30.8125 30.421875 30.8125 
L 19.671875 30.8125 
L 19.671875 0 
L 9.8125 0 
L 9.8125 72.90625 
L 32.078125 72.90625 
Q 44.578125 72.90625 50.734375 67.671875 
Q 56.890625 62.453125 56.890625 51.90625 
Q 56.890625 45.015625 53.6875 40.46875 
Q 50.484375 35.9375 44.390625 34.1875 
z
M 19.671875 64.796875 
L 19.671875 38.921875 
L 32.078125 38.921875 
Q 39.203125 38.921875 42.84375 42.21875 
Q 46.484375 45.515625 46.484375 51.90625 
Q 46.484375 58.296875 42.84375 61.546875 
Q 39.203125 64.796875 32.078125 64.796875 
z
" id="DejaVuSans-82"/>
     <path d="M 39.40625 66.21875 
Q 28.65625 66.21875 22.328125 58.203125 
Q 16.015625 50.203125 16.015625 36.375 
Q 16.015625 22.609375 22.328125 14.59375 
Q 28.65625 6.59375 39.40625 6.59375 
Q 50.140625 6.59375 56.421875 14.59375 
Q 62.703125 22.609375 62.703125 36.375 
Q 62.703125 50.203125 56.421875 58.203125 
Q 50.140625 66.21875 39.40625 66.21875 
z
M 39.40625 74.21875 
Q 54.734375 74.21875 63.90625 63.9375 
Q 73.09375 53.65625 73.09375 36.375 
Q 73.09375 19.140625 63.90625 8.859375 
Q 54.734375 -1.421875 39.40625 -1.421875 
Q 24.03125 -1.421875 14.8125 8.828125 
Q 5.609375 19.09375 5.609375 36.375 
Q 5.609375 53.65625 14.8125 63.9375 
Q 24.03125 74.21875 39.40625 74.21875 
z
" id="DejaVuSans-79"/>
     <path d="M 64.40625 67.28125 
L 64.40625 56.890625 
Q 59.421875 61.53125 53.78125 63.8125 
Q 48.140625 66.109375 41.796875 66.109375 
Q 29.296875 66.109375 22.65625 58.46875 
Q 16.015625 50.828125 16.015625 36.375 
Q 16.015625 21.96875 22.65625 14.328125 
Q 29.296875 6.6875 41.796875 6.6875 
Q 48.140625 6.6875 53.78125 8.984375 
Q 59.421875 11.28125 64.40625 15.921875 
L 64.40625 5.609375 
Q 59.234375 2.09375 53.4375 0.328125 
Q 47.65625 -1.421875 41.21875 -1.421875 
Q 24.65625 -1.421875 15.125 8.703125 
Q 5.609375 18.84375 5.609375 36.375 
Q 5.609375 53.953125 15.125 64.078125 
Q 24.65625 74.21875 41.21875 74.21875 
Q 47.75 74.21875 53.53125 72.484375 
Q 59.328125 70.75 64.40625 67.28125 
z
" id="DejaVuSans-67"/>
     <path d="M 48.78125 52.59375 
L 48.78125 44.1875 
Q 44.96875 46.296875 41.140625 47.34375 
Q 37.3125 48.390625 33.40625 48.390625 
Q 24.65625 48.390625 19.8125 42.84375 
Q 14.984375 37.3125 14.984375 27.296875 
Q 14.984375 17.28125 19.8125 11.734375 
Q 24.65625 6.203125 33.40625 6.203125 
Q 37.3125 6.203125 41.140625 7.25 
Q 44.96875 8.296875 48.78125 10.40625 
L 48.78125 2.09375 
Q 45.015625 0.34375 40.984375 -0.53125 
Q 36.96875 -1.421875 32.421875 -1.421875 
Q 20.0625 -1.421875 12.78125 6.34375 
Q 5.515625 14.109375 5.515625 27.296875 
Q 5.515625 40.671875 12.859375 48.328125 
Q 20.21875 56 33.015625 56 
Q 37.15625 56 41.109375 55.140625 
Q 45.0625 54.296875 48.78125 52.59375 
z
" id="DejaVuSans-99"/>
    </defs>
    <g transform="translate(189.6 28.56)scale(0.12 -0.12)">
     <use xlink:href="#DejaVuSans-82"/>
     <use x="69.482422" xlink:href="#DejaVuSans-79"/>
     <use x="148.193359" xlink:href="#DejaVuSans-67"/>
     <use x="218.017578" xlink:href="#DejaVuSans-32"/>
     <use x="249.804688" xlink:href="#DejaVuSans-99"/>
     <use x="304.785156" xlink:href="#DejaVuSans-117"/>
     <use x="368.164062" xlink:href="#DejaVuSans-114"/>
     <use x="409.277344" xlink:href="#DejaVuSans-118"/>
     <use x="468.457031" xlink:href="#DejaVuSans-101"/>
    </g>
   </g>
   <g id="legend_1">
    <g id="patch_7">
     <path d="M 276.115625 247 
L 381.8 247 
Q 383.8 247 383.8 245 
L 383.8 231.321875 
Q 383.8 229.321875 381.8 229.321875 
L 276.115625 229.321875 
Q 274.115625 229.321875 274.115625 231.321875 
L 274.115625 245 
Q 274.115625 247 276.115625 247 
z
" style="fill:#ffffff;opacity:0.8;stroke:#cccccc;stroke-linejoin:miter;"/>
    </g>
    <g id="line2d_15">
     <path d="M 278.115625 237.420312 
L 298.115625 237.420312 
" style="fill:none;stroke:#1f77b4;stroke-linecap:square;stroke-width:1.5;"/>
    </g>
    <g id="line2d_16"/>
    <g id="text_16">
     <!-- (area = 0.952) -->
     <defs>
      <path d="M 31 75.875 
Q 24.46875 64.65625 21.28125 53.65625 
Q 18.109375 42.671875 18.109375 31.390625 
Q 18.109375 20.125 21.3125 9.0625 
Q 24.515625 -2 31 -13.1875 
L 23.1875 -13.1875 
Q 15.875 -1.703125 12.234375 9.375 
Q 8.59375 20.453125 8.59375 31.390625 
Q 8.59375 42.28125 12.203125 53.3125 
Q 15.828125 64.359375 23.1875 75.875 
z
" id="DejaVuSans-40"/>
      <path d="M 10.59375 45.40625 
L 73.1875 45.40625 
L 73.1875 37.203125 
L 10.59375 37.203125 
z
M 10.59375 25.484375 
L 73.1875 25.484375 
L 73.1875 17.1875 
L 10.59375 17.1875 
z
" id="DejaVuSans-61"/>
      <path d="M 10.984375 1.515625 
L 10.984375 10.5 
Q 14.703125 8.734375 18.5 7.8125 
Q 22.3125 6.890625 25.984375 6.890625 
Q 35.75 6.890625 40.890625 13.453125 
Q 46.046875 20.015625 46.78125 33.40625 
Q 43.953125 29.203125 39.59375 26.953125 
Q 35.25 24.703125 29.984375 24.703125 
Q 19.046875 24.703125 12.671875 31.3125 
Q 6.296875 37.9375 6.296875 49.421875 
Q 6.296875 60.640625 12.9375 67.421875 
Q 19.578125 74.21875 30.609375 74.21875 
Q 43.265625 74.21875 49.921875 64.515625 
Q 56.59375 54.828125 56.59375 36.375 
Q 56.59375 19.140625 48.40625 8.859375 
Q 40.234375 -1.421875 26.421875 -1.421875 
Q 22.703125 -1.421875 18.890625 -0.6875 
Q 15.09375 0.046875 10.984375 1.515625 
z
M 30.609375 32.421875 
Q 37.25 32.421875 41.125 36.953125 
Q 45.015625 41.5 45.015625 49.421875 
Q 45.015625 57.28125 41.125 61.84375 
Q 37.25 66.40625 30.609375 66.40625 
Q 23.96875 66.40625 20.09375 61.84375 
Q 16.21875 57.28125 16.21875 49.421875 
Q 16.21875 41.5 20.09375 36.953125 
Q 23.96875 32.421875 30.609375 32.421875 
z
" id="DejaVuSans-57"/>
      <path d="M 10.796875 72.90625 
L 49.515625 72.90625 
L 49.515625 64.59375 
L 19.828125 64.59375 
L 19.828125 46.734375 
Q 21.96875 47.46875 24.109375 47.828125 
Q 26.265625 48.1875 28.421875 48.1875 
Q 40.625 48.1875 47.75 41.5 
Q 54.890625 34.8125 54.890625 23.390625 
Q 54.890625 11.625 47.5625 5.09375 
Q 40.234375 -1.421875 26.90625 -1.421875 
Q 22.3125 -1.421875 17.546875 -0.640625 
Q 12.796875 0.140625 7.71875 1.703125 
L 7.71875 11.625 
Q 12.109375 9.234375 16.796875 8.0625 
Q 21.484375 6.890625 26.703125 6.890625 
Q 35.15625 6.890625 40.078125 11.328125 
Q 45.015625 15.765625 45.015625 23.390625 
Q 45.015625 31 40.078125 35.4375 
Q 35.15625 39.890625 26.703125 39.890625 
Q 22.75 39.890625 18.8125 39.015625 
Q 14.890625 38.140625 10.796875 36.28125 
z
" id="DejaVuSans-53"/>
      <path d="M 8.015625 75.875 
L 15.828125 75.875 
Q 23.140625 64.359375 26.78125 53.3125 
Q 30.421875 42.28125 30.421875 31.390625 
Q 30.421875 20.453125 26.78125 9.375 
Q 23.140625 -1.703125 15.828125 -13.1875 
L 8.015625 -13.1875 
Q 14.5 -2 17.703125 9.0625 
Q 20.90625 20.125 20.90625 31.390625 
Q 20.90625 42.671875 17.703125 53.65625 
Q 14.5 64.65625 8.015625 75.875 
z
" id="DejaVuSans-41"/>
     </defs>
     <g transform="translate(306.115625 240.920312)scale(0.1 -0.1)">
      <use xlink:href="#DejaVuSans-40"/>
      <use x="39.013672" xlink:href="#DejaVuSans-97"/>
      <use x="100.292969" xlink:href="#DejaVuSans-114"/>
      <use x="141.375" xlink:href="#DejaVuSans-101"/>
      <use x="202.898438" xlink:href="#DejaVuSans-97"/>
      <use x="264.177734" xlink:href="#DejaVuSans-32"/>
      <use x="295.964844" xlink:href="#DejaVuSans-61"/>
      <use x="379.753906" xlink:href="#DejaVuSans-32"/>
      <use x="411.541016" xlink:href="#DejaVuSans-48"/>
      <use x="475.164062" xlink:href="#DejaVuSans-46"/>
      <use x="506.951172" xlink:href="#DejaVuSans-57"/>
      <use x="570.574219" xlink:href="#DejaVuSans-53"/>
      <use x="634.197266" xlink:href="#DejaVuSans-50"/>
      <use x="697.820312" xlink:href="#DejaVuSans-41"/>
     </g>
    </g>
   </g>
  </g>
 </g>
 <defs>
  <clipPath id="pf5c250fcd1">
   <rect height="217.44" width="334.8" x="54" y="34.56"/>
  </clipPath>
 </defs>
</svg>
